<svg version="1.0" xmlns="http://www.w3.org/2000/svg"
 width="1080.000000pt" height="960.000000pt" viewBox="100 100 1080.000000 450.000000"
 preserveAspectRatio="xMidYMid meet">

<g transform="translate(0.000000,960.000000) scale(0.10000,-0.100000)"
fill="#000000" stroke="none">
<path d="M9177 7495 c-3 -41 -14 -92 -24 -112 -24 -49 -75 -83 -125 -83 -24 0
-37 -4 -33 -10 3 -5 21 -10 39 -10 44 0 97 -37 119 -83 10 -20 21 -71 24 -112
6 -83 23 -103 23 -27 0 72 18 121 56 154 19 16 32 34 29 38 -6 9 39 28 80 33
35 4 20 12 -39 22 -79 13 -126 95 -126 220 0 73 -17 51 -23 -30z"/>
<path d="M8667 7373 c-8 -107 -23 -151 -66 -194 -40 -40 -102 -59 -191 -59
-79 0 -58 -17 29 -23 92 -6 142 -27 178 -74 30 -39 53 -125 53 -200 0 -81 16
-63 22 25 6 83 31 158 49 147 16 -10 60 35 54 56 -7 23 38 39 133 46 39 3 72
9 72 13 0 4 -35 10 -79 13 -92 6 -142 27 -178 74 -30 39 -53 125 -53 201 0 80
-16 62 -23 -25z"/>
<path d="M2956 7160 c-21 -6 -60 -21 -86 -34 -32 -16 -52 -21 -63 -15 -73 41
-418 58 -535 26 -147 -40 -272 -133 -326 -242 -77 -158 -70 -353 18 -485 l25
-38 -21 -18 c-101 -91 -128 -298 -58 -440 23 -48 45 -75 83 -103 77 -58 114
-65 342 -65 231 -1 291 10 414 75 73 39 74 39 95 21 118 -103 397 -134 558
-60 l47 21 68 -21 c97 -31 220 -45 345 -40 102 4 110 3 120 -16 23 -43 94
-107 147 -134 48 -23 71 -27 161 -30 90 -3 114 -1 164 19 80 30 148 97 171
170 l17 54 70 17 70 17 50 -34 c77 -53 110 -59 338 -60 186 0 213 2 287 24 46
13 108 38 139 57 l56 33 51 -35 c133 -89 385 -110 536 -43 44 19 45 19 102 0
159 -56 359 -54 502 4 54 22 63 23 82 11 83 -55 297 -62 391 -14 96 50 144
125 161 255 l8 62 33 -49 c33 -48 33 -48 22 -111 -23 -125 12 -250 91 -329 64
-64 114 -79 294 -87 237 -10 384 32 503 142 64 59 101 119 129 210 16 53 18
97 17 400 -1 464 -12 531 -101 617 -104 101 -268 122 -411 52 l-52 -26 -43 21
c-113 54 -244 55 -353 1 -62 -30 -69 -32 -108 -20 -22 7 -84 14 -136 15 -52 2
-111 8 -130 14 -50 16 -158 14 -217 -4 -27 -8 -68 -28 -90 -44 l-40 -29 -34
21 c-137 84 -339 95 -486 27 -37 -17 -65 -25 -69 -19 -3 5 -30 23 -59 40 -34
19 -57 40 -65 59 -17 40 -101 117 -156 141 -71 32 -168 36 -250 11 -38 -12
-78 -28 -89 -35 -16 -12 -25 -13 -55 -2 -110 39 -398 54 -510 26 -128 -31
-266 -121 -321 -210 l-16 -25 -64 24 c-50 19 -85 25 -159 25 -52 1 -113 8
-135 15 -22 8 -76 14 -120 14 -89 -1 -151 -22 -217 -75 l-38 -30 -51 27 c-117
59 -231 75 -354 49 -43 -9 -96 -25 -117 -36 -20 -10 -41 -19 -46 -19 -27 0
-129 74 -145 105 -46 91 -152 154 -269 160 -40 2 -90 0 -112 -5z m157 -248 c9
-10 19 -44 22 -77 12 -113 6 -107 88 -104 40 2 78 0 84 -4 32 -20 21 -128 -14
-141 -9 -4 -43 -9 -75 -13 l-58 -6 0 -186 c0 -132 4 -191 12 -199 7 -7 38 -12
70 -12 52 0 59 -3 75 -27 26 -40 24 -107 -5 -135 -21 -21 -31 -23 -135 -23
-99 0 -117 3 -153 23 -75 44 -78 55 -75 314 l2 228 -30 0 c-75 0 -97 29 -94
123 2 67 16 81 75 73 l48 -7 0 80 c0 71 2 82 22 95 32 23 120 21 141 -2z
m2832 4 c14 -10 22 -35 30 -97 l10 -84 79 -1 c88 -1 96 -6 96 -70 0 -61 -17
-77 -97 -89 l-68 -10 4 -185 c1 -106 7 -190 13 -197 6 -8 33 -13 64 -13 72 0
94 -21 94 -89 0 -33 -6 -56 -19 -72 -18 -23 -26 -24 -133 -24 -139 0 -180 16
-216 86 -22 43 -23 48 -16 262 l7 217 -25 0 c-63 0 -87 11 -99 47 -13 42 -7
116 12 139 10 12 24 15 61 10 l48 -7 0 80 c0 71 2 82 22 95 28 20 108 21 133
2z m-3291 -10 c37 -7 72 -20 77 -27 26 -40 22 -112 -9 -148 l-17 -20 -70 19
c-84 24 -213 27 -254 5 -16 -8 -34 -28 -41 -45 -24 -57 -2 -80 190 -190 150
-87 214 -170 213 -276 -1 -74 -21 -121 -74 -168 -63 -58 -125 -71 -335 -71
-164 0 -184 2 -203 19 -40 37 -36 162 7 185 10 5 53 3 107 -5 138 -21 227 -19
259 7 29 23 33 47 11 88 -15 31 -68 67 -182 126 -147 76 -203 148 -203 260 0
127 56 200 185 241 53 17 252 17 339 0z m2819 3 c51 -7 77 -16 90 -31 29 -34
19 -136 -15 -159 -6 -3 -42 2 -81 13 -52 14 -97 18 -160 16 -83 -3 -90 -5
-113 -31 -52 -60 -23 -107 112 -182 155 -86 215 -137 250 -210 61 -128 5 -262
-131 -316 -56 -22 -74 -24 -252 -24 -224 0 -223 0 -231 89 -5 57 10 111 31
119 7 2 53 -2 102 -9 113 -17 222 -17 255 -1 19 9 26 22 28 49 5 53 -36 92
-170 163 -183 97 -239 171 -225 297 13 108 80 186 184 214 59 16 230 18 326 3z
m-1098 -184 c14 -13 25 -31 25 -40 0 -20 5 -19 41 7 40 30 143 37 203 14 84
-32 152 -121 182 -236 24 -93 16 -229 -18 -295 -55 -111 -189 -160 -335 -122
-49 13 -52 13 -57 -7 -3 -12 -6 -53 -6 -92 0 -95 -9 -133 -33 -146 -30 -16
-120 -12 -157 7 l-33 17 6 66 c9 88 27 522 30 692 2 132 2 135 27 147 42 21
98 16 125 -12z m3457 14 c26 -7 39 -17 43 -32 2 -12 6 -103 8 -202 3 -193 9
-222 54 -246 55 -29 146 -5 180 48 15 23 19 58 23 222 l5 195 25 13 c37 19
104 16 129 -4 18 -16 23 -35 32 -149 6 -72 9 -246 7 -385 -3 -237 -5 -257 -25
-294 -28 -53 -68 -89 -128 -117 -46 -21 -64 -23 -213 -23 -160 0 -164 1 -183
24 -27 33 -27 133 0 160 16 16 25 18 67 9 27 -5 89 -10 137 -11 82 -2 90 0
108 22 14 17 19 39 19 82 0 32 -2 59 -4 59 -2 0 -23 -7 -46 -15 -49 -17 -177
-20 -231 -5 -140 39 -184 164 -160 454 13 159 23 191 63 199 40 8 52 7 90 -4z
m-3947 -39 c103 -50 184 -166 207 -297 15 -88 1 -124 -52 -134 -49 -10 -279
-29 -351 -29 -51 0 -60 -3 -57 -16 10 -54 125 -77 276 -54 84 12 86 12 104
-10 25 -31 25 -119 -1 -151 -19 -24 -22 -24 -193 -24 -158 0 -178 3 -233 24
-120 48 -175 138 -175 291 0 207 100 369 260 421 49 16 162 5 215 -21z m2799
14 c26 -9 70 -37 99 -64 98 -89 142 -211 135 -365 -8 -148 -56 -227 -167 -279
-39 -18 -65 -21 -166 -21 -104 0 -127 3 -170 23 -98 45 -139 106 -157 231 -15
99 7 225 54 314 37 69 112 140 171 160 56 20 143 21 201 1z m502 6 c15 -6 32
-18 38 -26 10 -12 19 -13 56 -5 99 23 185 8 239 -42 33 -31 71 -115 71 -160 0
-34 -4 -40 -35 -53 -19 -7 -57 -14 -85 -14 -50 0 -51 1 -67 38 -8 20 -22 45
-31 55 -17 19 -69 23 -104 7 -23 -11 -23 -13 -20 -148 3 -135 -9 -357 -21
-368 -15 -15 -85 -22 -131 -13 -78 14 -79 17 -65 150 6 63 14 215 18 339 l6
225 35 12 c44 15 62 16 96 3z"/>
<path d="M4487 6529 c-38 -22 -61 -89 -61 -181 -1 -83 1 -89 27 -115 23 -23
36 -28 77 -27 54 1 81 18 106 66 30 58 5 199 -43 244 -27 25 -75 31 -106 13z
m69 -95 c25 -7 44 -43 44 -84 0 -25 -5 -30 -36 -39 -28 -8 -45 -7 -71 4 -32
14 -34 17 -31 57 2 34 8 45 28 55 28 14 36 15 66 7z"/>
<path d="M3710 6522 c-41 -20 -88 -101 -68 -114 17 -10 225 -10 232 0 7 12
-23 67 -52 94 -37 35 -71 41 -112 20z"/>
<path d="M6532 6514 c-42 -29 -65 -91 -69 -189 -4 -78 -2 -94 16 -122 44 -70
160 -66 208 6 46 69 23 244 -39 296 -34 29 -82 33 -116 9z m115 -158 c34 -30
25 -43 -35 -57 -32 -7 -49 -5 -77 8 -41 19 -44 34 -12 56 34 25 91 21 124 -7z"/>
<path d="M9021 6937 c-2 -101 -40 -157 -108 -157 -18 0 -33 -4 -33 -10 0 -5
15 -10 34 -10 36 0 80 -33 95 -72 4 -13 12 -50 17 -83 l8 -60 6 67 c6 57 11
71 33 88 15 12 27 27 27 35 0 15 22 25 56 25 13 0 24 5 24 10 0 6 -15 10 -34
10 -45 0 -93 46 -101 98 -4 20 -10 55 -15 77 -8 39 -8 39 -9 -18z"/>
<path d="M1777 5833 c-8 -107 -23 -151 -66 -194 -40 -40 -102 -59 -191 -59
-79 0 -58 -17 29 -23 92 -6 142 -27 178 -74 30 -39 53 -125 53 -200 0 -81 16
-63 22 25 6 83 31 158 49 147 16 -10 60 35 54 56 -7 23 38 39 133 46 39 3 72
9 72 13 0 4 -35 10 -79 13 -92 6 -142 27 -178 74 -30 39 -53 125 -53 201 0 80
-16 62 -23 -25z"/>
<path d="M2237 5370 c-3 -34 -13 -72 -22 -86 -23 -36 -74 -64 -117 -64 -21 0
-38 -4 -38 -10 0 -5 17 -10 38 -10 43 0 94 -28 117 -64 9 -14 19 -52 22 -86 6
-63 23 -84 23 -27 0 42 19 109 29 103 4 -3 19 6 31 19 13 14 19 25 14 25 -25
1 45 29 74 30 17 0 32 5 32 10 0 6 -17 10 -37 10 -44 0 -95 28 -118 64 -9 14
-19 52 -22 86 -3 33 -9 60 -13 60 -4 0 -10 -27 -13 -60z"/>
</g>
</svg>