<?xml version="1.0" standalone="no"?>
<!DOCTYPE svg PUBLIC "-//W3C//DTD SVG 20010904//EN"
        "http://www.w3.org/2000/svg">
<svg version="1.0" xmlns="http://www.w3.org/2000/svg"
     width="1000.000000pt" height="300.000000pt" viewBox="0 0 1000.000000 300.000000"
     preserveAspectRatio="xMidYMid meet">

    <g transform="translate(0.000000,300.000000) scale(0.100000,-0.100000)"
       fill="#000000" stroke="none">
        <path d="M8189 2575 c-9 -186 -34 -223 -157 -235 l-67 -7 55 -2 c125 -3 159
-50 170 -234 6 -111 7 -115 8 -41 4 201 50 271 181 275 40 2 37 3 -21 9 -122
12 -147 50 -157 234 l-6 121 -6 -120z"/>
        <path d="M7751 2485 c-2 -100 -19 -191 -45 -229 -23 -36 -70 -57 -138 -63 -32
-3 -58 -9 -58 -13 0 -4 26 -10 58 -13 32 -2 73 -12 89 -21 62 -31 92 -118 95
-274 l1 -87 7 110 c7 119 23 187 44 179 15 -6 58 39 54 57 -4 16 54 38 105 38
20 1 37 6 37 11 0 6 -17 10 -37 10 -94 0 -163 46 -184 123 -7 23 -15 92 -19
152 l-7 110 -2 -90z"/>
        <path d="M2912 2222 c-29 -11 -58 -24 -63 -29 -7 -7 -23 -6 -48 3 -51 17 -187
34 -276 34 -149 -1 -283 -49 -366 -132 -120 -120 -149 -317 -69 -472 30 -59
30 -60 11 -80 -11 -12 -31 -46 -45 -76 -21 -45 -26 -70 -26 -136 0 -97 19
-157 67 -213 62 -73 95 -84 278 -89 198 -6 277 6 376 56 l74 37 55 -32 c83
-49 166 -67 280 -60 53 3 115 13 140 22 58 22 69 22 164 -4 61 -16 108 -21
200 -21 l122 0 64 -63 c77 -74 125 -93 242 -91 128 2 227 66 261 168 12 36 17
40 69 53 55 14 56 14 101 -17 59 -39 119 -50 285 -50 171 0 243 13 334 59 l73
36 55 -33 c81 -48 121 -57 255 -57 102 1 127 4 168 23 l49 22 61 -21 c124 -43
340 -35 436 16 21 11 31 9 75 -10 144 -65 322 -28 394 81 28 41 34 63 44 152
3 21 4 21 30 -11 24 -31 26 -38 16 -78 -22 -95 13 -227 75 -287 50 -48 110
-70 217 -77 318 -24 525 97 575 332 26 120 15 620 -15 732 -5 20 -23 53 -40
74 -86 103 -243 131 -376 67 l-41 -20 -57 26 c-50 23 -68 26 -139 23 -66 -3
-93 -10 -139 -33 -50 -25 -60 -27 -89 -17 -17 6 -65 11 -105 11 -40 0 -85 5
-101 11 -70 28 -220 6 -279 -40 l-26 -20 -51 28 c-116 64 -288 67 -404 8 -31
-17 -33 -16 -82 14 -27 17 -61 50 -76 72 -56 89 -157 134 -272 124 -34 -4 -81
-16 -105 -28 -38 -19 -48 -20 -88 -10 -190 47 -393 39 -518 -21 -60 -28 -148
-101 -168 -140 -9 -16 -13 -16 -73 2 -36 12 -91 20 -129 20 -37 0 -99 7 -139
15 -102 21 -197 0 -260 -58 l-23 -20 -52 26 c-29 14 -73 31 -98 36 -94 22
-226 8 -302 -30 l-37 -19 -38 24 c-47 30 -56 39 -97 96 -70 95 -213 135 -334
92z m157 -199 c15 -13 23 -36 28 -83 l8 -65 70 -5 c68 -5 70 -6 78 -36 7 -22
5 -40 -4 -60 -12 -24 -23 -30 -74 -39 l-60 -10 4 -155 c1 -85 7 -160 13 -167
5 -7 33 -13 61 -15 49 -3 53 -5 63 -37 26 -81 -9 -114 -124 -113 -90 0 -152
21 -179 60 -16 24 -18 47 -15 225 l4 197 -46 0 c-44 0 -45 1 -57 40 -8 28 -9
53 -3 78 9 36 11 37 56 40 l47 3 3 67 c3 59 6 68 28 79 35 18 74 16 99 -4z
m2387 3 c13 -10 22 -34 29 -83 l10 -68 70 -5 c64 -5 70 -7 75 -30 6 -23 -3
-76 -14 -88 -3 -2 -31 -10 -63 -16 l-58 -12 4 -155 c2 -84 8 -160 13 -166 6
-7 32 -13 59 -13 56 0 69 -15 69 -79 0 -58 -28 -74 -128 -74 -58 0 -91 6 -125
21 -74 33 -80 55 -71 278 l7 184 -47 0 c-41 0 -48 3 -56 26 -13 33 -13 90 0
115 8 14 21 19 55 19 l44 0 3 67 c3 61 6 69 28 80 33 17 72 16 96 -1z m-2799
-6 c97 -14 118 -32 110 -99 -7 -62 -24 -72 -89 -54 -29 8 -85 15 -125 16 -84
2 -126 -20 -131 -69 -4 -38 17 -58 131 -123 48 -28 103 -63 123 -77 108 -83
119 -237 24 -318 -53 -44 -129 -61 -275 -60 -170 1 -181 4 -195 54 -12 45 1
115 23 122 6 3 66 -2 132 -10 109 -14 124 -13 158 1 31 13 37 21 37 45 0 45
-29 73 -131 127 -116 62 -183 124 -199 184 -25 95 20 195 108 240 57 30 173
37 299 21z m2386 -1 c40 -6 80 -15 89 -20 23 -12 32 -67 18 -104 -15 -39 -26
-45 -64 -34 -159 46 -276 25 -276 -50 0 -35 23 -56 134 -121 98 -58 169 -118
192 -163 20 -37 20 -124 0 -170 -19 -45 -81 -91 -149 -109 -54 -14 -280 -17
-329 -5 -37 10 -56 70 -39 126 6 21 17 41 24 44 6 2 60 -3 118 -11 148 -21
209 -5 209 52 0 39 -34 70 -140 127 -161 85 -211 151 -196 256 21 156 165 220
409 182z m-896 -166 c9 -16 17 -29 18 -30 1 -2 19 6 40 17 74 38 177 18 237
-46 15 -16 39 -56 55 -89 25 -53 28 -71 28 -160 0 -88 -3 -107 -25 -150 -21
-41 -36 -55 -80 -78 -50 -26 -63 -28 -135 -24 -44 2 -87 7 -96 11 -14 6 -17
-6 -22 -96 -4 -82 -9 -105 -23 -115 -24 -17 -86 -16 -130 2 -35 14 -36 16 -30
57 3 24 8 189 12 367 8 370 6 361 89 361 38 0 47 -4 62 -27z m2916 15 c14 -11
18 -39 22 -168 6 -173 9 -185 38 -217 15 -17 32 -23 65 -23 37 0 50 6 78 34
l34 34 0 160 c0 155 1 161 22 176 29 20 102 21 121 1 22 -22 31 -138 32 -400
0 -250 -6 -286 -54 -339 -46 -50 -103 -69 -226 -74 -60 -2 -128 0 -150 5 -35
8 -41 13 -49 46 -6 23 -6 51 0 75 10 42 -4 39 170 31 105 -5 124 8 124 87 l0
53 -35 -15 c-50 -21 -180 -18 -231 5 -83 38 -109 99 -109 261 0 143 12 246 32
265 18 18 93 20 116 3z m-3372 -14 c111 -33 209 -172 209 -298 0 -79 -2 -80
-230 -96 -84 -5 -156 -12 -158 -15 -3 -3 3 -14 12 -24 28 -31 97 -41 203 -29
112 13 118 10 118 -68 0 -71 -11 -79 -118 -88 -166 -13 -313 27 -361 101 -38
56 -52 147 -37 236 20 123 70 208 148 254 76 44 131 51 214 27z m2419 -14 c56
-29 100 -77 134 -150 29 -60 31 -73 31 -175 0 -94 -3 -116 -22 -150 -47 -88
-123 -127 -247 -127 -196 -1 -286 83 -286 266 1 226 126 377 298 361 30 -3 71
-14 92 -25z m418 2 c12 -12 26 -15 47 -11 137 29 228 -16 262 -130 15 -53 15
-55 -6 -72 -24 -20 -91 -33 -120 -24 -10 3 -22 18 -26 33 -14 57 -51 74 -110
52 -25 -9 -26 -13 -19 -55 3 -25 3 -116 -1 -201 -6 -134 -10 -159 -26 -175
-23 -23 -85 -25 -135 -4 -32 13 -35 18 -30 42 9 42 26 335 26 445 0 110 4 117
78 118 27 0 48 -6 60 -18z"/>
        <path d="M4227 1690 c-15 -12 -31 -38 -37 -58 -14 -50 -12 -153 3 -173 36 -46
106 -48 148 -3 21 22 24 35 23 92 -1 73 -19 120 -56 146 -30 21 -50 20 -81 -4z
m78 -86 c10 -11 15 -29 13 -53 -2 -29 -7 -37 -27 -39 -12 -2 -34 -1 -47 2 -20
5 -24 13 -24 46 0 55 48 80 85 44z"/>
        <path d="M3567 1689 c-20 -12 -59 -84 -50 -93 8 -8 188 -8 196 0 9 9 -18 59
-45 84 -23 21 -72 26 -101 9z"/>
        <path d="M5957 1689 c-47 -27 -81 -172 -57 -243 27 -82 149 -88 190 -10 18 32
18 124 1 176 -23 71 -84 106 -134 77z m105 -146 c17 -21 -14 -43 -60 -43 -71
0 -97 41 -40 64 35 15 77 6 100 -21z"/>
        <path d="M8051 2081 c-2 -89 -18 -139 -52 -157 -16 -8 -35 -14 -44 -14 -26 0
-16 -15 17 -25 51 -16 71 -54 79 -148 6 -79 6 -80 7 -20 1 34 7 74 12 88 13
34 64 85 84 85 27 0 18 15 -16 25 -50 16 -70 52 -78 147 l-7 83 -2 -64z"/>
        <path d="M1961 1195 c-2 -100 -19 -191 -45 -229 -23 -36 -70 -57 -138 -63 -32
-3 -58 -9 -58 -13 0 -4 26 -10 58 -13 32 -2 73 -12 89 -21 62 -31 92 -118 95
-274 l1 -87 7 110 c7 119 23 187 44 179 15 -6 58 39 54 57 -4 16 54 38 105 38
20 1 37 6 37 11 0 6 -17 10 -37 10 -94 0 -163 46 -184 123 -7 23 -15 92 -19
152 l-7 110 -2 -90z"/>
        <path d="M2351 800 c-5 -161 -33 -199 -153 -210 l-73 -7 58 -2 c124 -3 155
-39 167 -190 7 -94 7 -95 9 -26 3 160 43 206 186 218 31 3 28 4 -16 5 -126 4
-157 40 -169 190 l-7 97 -2 -75z"/>
    </g>
</svg>
